<svg xmlns="http://www.w3.org/2000/svg" viewBox="0 0 512 512" width="512" height="512">
  <title>YouTube Source — Film Strip</title>
  <rect width="512" height="512" rx="96" ry="96" fill="#111114"/>
  <rect x="48" y="80" width="416" height="48" fill="#1B1B1F"/>
  <g fill="#0F0F0F">
    <rect x="72"  y="92" width="32" height="24" rx="4"/>
    <rect x="120" y="92" width="32" height="24" rx="4"/>
    <rect x="168" y="92" width="32" height="24" rx="4"/>
    <rect x="216" y="92" width="32" height="24" rx="4"/>
    <rect x="264" y="92" width="32" height="24" rx="4"/>
    <rect x="312" y="92" width="32" height="24" rx="4"/>
    <rect x="360" y="92" width="32" height="24" rx="4"/>
    <rect x="408" y="92" width="32" height="24" rx="4"/>
  </g>
  <rect x="48" y="384" width="416" height="48" fill="#1B1B1F"/>
  <g fill="#0F0F0F">
    <rect x="72"  y="396" width="32" height="24" rx="4"/>
    <rect x="120" y="396" width="32" height="24" rx="4"/>
    <rect x="168" y="396" width="32" height="24" rx="4"/>
    <rect x="216" y="396" width="32" height="24" rx="4"/>
    <rect x="264" y="396" width="32" height="24" rx="4"/>
    <rect x="312" y="396" width="32" height="24" rx="4"/>
    <rect x="360" y="396" width="32" height="24" rx="4"/>
    <rect x="408" y="396" width="32" height="24" rx="4"/>
  </g>
  <rect x="80" y="144" width="352" height="224" rx="16" ry="16" fill="#FF0033"/>
  <path d="M214 200 L334 256 L214 312 Z" fill="#FFFFFF"/>
</svg>
