<svg xmlns="http://www.w3.org/2000/svg" viewBox="0 0 512 512" width="512" height="512">
  <title>YouTube Source — Aperture</title>
  <defs>
    <linearGradient id="ring" x1="0" y1="0" x2="1" y2="1">
      <stop offset="0%" stop-color="#FF1744"/>
      <stop offset="100%" stop-color="#7C1024"/>
    </linearGradient>
  </defs>
  <rect width="512" height="512" rx="96" ry="96" fill="#0B0B0E"/>
  <circle cx="256" cy="256" r="180" fill="none" stroke="url(#ring)" stroke-width="20"/>
  <g fill="#FF0033" opacity="0.85">
    <path d="M256 96 L320 200 L192 200 Z"/>
    <path d="M396 176 L356 296 L268 196 Z" transform="rotate(60 256 256)"/>
    <path d="M396 176 L356 296 L268 196 Z" transform="rotate(120 256 256)"/>
    <path d="M256 96 L320 200 L192 200 Z" transform="rotate(180 256 256)"/>
    <path d="M396 176 L356 296 L268 196 Z" transform="rotate(240 256 256)"/>
    <path d="M396 176 L356 296 L268 196 Z" transform="rotate(300 256 256)"/>
  </g>
  <circle cx="256" cy="256" r="92" fill="#0B0B0E"/>
  <path d="M228 208 L316 256 L228 304 Z" fill="#FFFFFF"/>
</svg>
